# xmcd
#
# Track frame offsets:
# 150
# 23875
# 55173
# 78541
# 101757
# 126953
# 149936
# 171078
# 192173
# 212718
# 235269
# 258881
# 284108
#
# Disc length: 4144 seconds
#
#
# Revision: 0
# Processed by: cddbd v1.5.2PL0 Copyright (c) Steve Scherf et al.
# Submitted via: FreeRIP 2.944 
#
DISCID=c9102e0d
DTITLE=LAmour-Sackett02 - Far-Blue-Mt5
DYEAR=1976
DGENRE=Booty Bass
TTITLE0=501
TTITLE1=502
TTITLE2=503
TTITLE3=504
TTITLE4=505
TTITLE5=506
TTITLE6=507
TTITLE7=508
TTITLE8=509
TTITLE9=510
TTITLE10=511
TTITLE11=512
TTITLE12=513
EXTD=To the Far Blue Mountains by Louis A'mour\nread by John Curless - Sacketts 1976\nRandom House Inc 8 CDs
EXTT0=
EXTT1=
EXTT2=
EXTT3=
EXTT4=
EXTT5=
EXTT6=
EXTT7=
EXTT8=
EXTT9=
EXTT10=
EXTT11=
EXTT12=
PLAYORDER=
